<?xml version="1.0" standalone="no"?>
<!DOCTYPE svg PUBLIC "-//W3C//DTD SVG 20010904//EN"
 "http://www.w3.org/TR/2001/REC-SVG-20010904/DTD/svg10.dtd">
<svg version="1.0" xmlns="http://www.w3.org/2000/svg"
 width="64.000000pt" height="64.000000pt" viewBox="0 0 64.000000 64.000000"
 preserveAspectRatio="xMidYMid meet">
<metadata>
Created by potrace 1.16, written by Peter Selinger 2001-2019
</metadata>
<g transform="translate(0.000000,64.000000) scale(0.100000,-0.100000)"
fill="#000000" stroke="none">
<path d="M0 548 l1 -93 20 37 c25 48 79 102 127 127 l37 20 -92 1 -93 0 0 -92z"/>
<path d="M490 622 c45 -22 110 -87 132 -132 l18 -35 0 93 0 92 -92 0 -93 0 35
-18z"/>
<path d="M146 422 c-2 -4 19 -8 47 -9 37 -1 46 1 32 7 -26 11 -72 12 -79 2z"/>
<path d="M100 385 c0 -11 5 -15 14 -12 22 9 26 -3 11 -33 -13 -26 -13 -28 5
-33 24 -6 28 -55 5 -64 -20 -7 -26 -1 -35 39 l-8 33 -1 -32 c-1 -17 -3 -38 -7
-46 -3 -10 5 -17 28 -22 31 -7 31 -8 8 -12 -49 -8 -52 -11 -34 -37 8 -14 26
-28 37 -32 12 -4 34 -15 49 -25 14 -11 38 -19 52 -19 14 0 41 -8 61 -17 33
-16 37 -16 70 0 20 9 47 17 62 17 48 0 153 72 153 104 0 3 -15 6 -32 7 -30 0
-31 1 -10 9 13 6 22 18 22 31 0 18 -2 20 -15 9 -12 -10 -19 -10 -27 -2 -17 17
-68 15 -74 -3 -16 -42 -81 4 -72 51 2 13 -3 19 -16 19 -10 0 -20 8 -22 18 -3
19 22 24 29 5 3 -7 6 4 6 25 1 36 0 37 -34 37 -19 0 -35 -5 -35 -11 0 -12
-159 -7 -179 5 -6 4 -11 0 -11 -9z m199 -65 c-6 -5 -13 -21 -14 -37 -1 -15 -3
-34 -3 -40 -2 -15 -102 -19 -102 -4 0 5 -3 23 -6 40 l-6 31 50 0 c35 0 52 4
56 15 3 9 12 12 21 8 12 -4 14 -8 4 -13z m124 -117 c-7 -2 -19 -2 -25 0 -7 3
-2 5 12 5 14 0 19 -2 13 -5z"/>
<path d="M380 371 c0 -5 9 -11 20 -14 12 -3 20 -14 20 -25 0 -25 39 -41 51
-21 8 14 -4 43 -24 56 -6 4 -3 -6 7 -22 l20 -30 -38 33 c-37 32 -56 40 -56 23z"/>
<path d="M380 341 c0 -6 4 -13 10 -16 6 -3 7 1 4 9 -7 18 -14 21 -14 7z"/>
<path d="M0 93 l0 -93 92 0 92 0 -45 29 c-51 33 -100 83 -122 126 -16 29 -16
28 -17 -62z"/>
<path d="M620 150 c-17 -40 -80 -104 -127 -129 l-38 -20 93 -1 92 0 0 90 c0
50 -2 90 -4 90 -2 0 -9 -14 -16 -30z"/>
</g>
</svg>
